<svg xmlns="http://www.w3.org/2000/svg" viewBox="0 0 615.38 77.53"><defs><style>.cls-1{fill:#231f20}.cls-2{fill:#ffc907}</style></defs><g id="Layer_2" data-name="Layer 2"><g id="Layer_1-2" data-name="Layer 1"><path class="cls-1" d="M110.06 51.33c-1.15 3.81-3.76 5.67-8 5.67-3.15 0-5.43-1.12-7-3.41s-2.36-5.82-2.36-10.15c0-4.17.74-7.31 2.2-9.32s3.48-2.88 6.33-2.88c2.06 0 2.73.39 2.9.55a4.3 4.3 0 0 1 1 2.33c.6 3.06 2.66 3.52 3.84 3.52a3 3 0 0 0 2.47-1.17 3.74 3.74 0 0 0 .79-2.26c0-2-1.24-3.62-3.69-4.9a15.77 15.77 0 0 0-7.36-1.76 16 16 0 0 0-11.48 4.71 16.37 16.37 0 0 0-4.87 12.25 16.07 16.07 0 0 0 4.53 11.85 15.21 15.21 0 0 0 11.12 4.5c6.89 0 11.26-3 13-9l.37-1.27h-3.58zm47.37 4.35a1.15 1.15 0 0 1-.64-.91 46.9 46.9 0 0 1-.19-6v-8a25.53 25.53 0 0 0-.75-7.36 7.87 7.87 0 0 0-3.48-4.2 12 12 0 0 0-6.45-1.64 12.63 12.63 0 0 0-6.28 1.62 14.43 14.43 0 0 0-3.28 2.57V9h-1.73l-.38.08a23.36 23.36 0 0 1-8.75 1.41h-1v3.61h1c2.38 0 3 .53 3.17.76s.65 1.3.65 5v28.89c0 3.2 0 5.13-.12 5.74a1.83 1.83 0 0 1-.58 1.14c-.08.07-.58.45-2.63.45h-1.73v3.61H141v-3.61h-1a5.55 5.55 0 0 1-2.83-.44 1.31 1.31 0 0 1-.63-1 58.42 58.42 0 0 1-.15-5.88V37.39a12.49 12.49 0 0 1 3.46-4.28 7.11 7.11 0 0 1 4.36-1.41 5.64 5.64 0 0 1 3.37.94 3.93 3.93 0 0 1 1.62 2.3 24.11 24.11 0 0 1 .39 5.11v8.7c0 3.17 0 5.08-.12 5.71a1.9 1.9 0 0 1-.58 1.16c-.08.07-.59.46-2.66.46h-1.66v3.61h17v-3.61h-1a7.15 7.15 0 0 1-3.14-.4zm45.73-2.45c-.43 2.63-1.52 2.63-1.93 2.63-.67 0-.82-.25-.91-.51s-.37-1.51-.37-4.93V38.7a15.28 15.28 0 0 0-.88-5.92 8.36 8.36 0 0 0-3.69-3.68 15.16 15.16 0 0 0-7.47-1.55c-4.24 0-7.45.86-9.54 2.54s-3.23 3.43-3.23 5.11a2.84 2.84 0 0 0 3.15 3c1.48 0 3.37-.77 4-4.43.2-1.17.93-2.72 4.94-2.72a6.83 6.83 0 0 1 3.76.91 3.54 3.54 0 0 1 1.61 1.84 16 16 0 0 1 .36 4.08v.75l-4.89 2A44.79 44.79 0 0 0 178 46.09c-2.63 2-4 4.42-4 7.16a6.45 6.45 0 0 0 2.5 5.27c2.81 2.24 6.53 2.64 11.32.56a35.63 35.63 0 0 0 5.45-3.08 6.59 6.59 0 0 0 1.73 2.9 6.4 6.4 0 0 0 4.46 1.54c4.29 0 6.68-2.42 6.93-7v-1h-3.09zm-21.3-1.33c0-3.29 2.87-6.12 8.54-8.42l2.51-1V52a26.66 26.66 0 0 1-4.39 2.88c-2.66 1.33-4.54 1.35-5.73 0a4.44 4.44 0 0 1-.93-2.98zm55.7-24.35a9.66 9.66 0 0 0-5.91 2.34 13.24 13.24 0 0 0-2.53 2.6 19.22 19.22 0 0 0-1-4.29l-.33-.89-.9.29a48.53 48.53 0 0 1-8.5 2l-.87.1v3.47h1.74a4.5 4.5 0 0 1 2.56.46 1.55 1.55 0 0 1 .61 1.15c.08.73.12 2.66.12 5.75v8.17a55.06 55.06 0 0 1-.16 5.93 1.36 1.36 0 0 1-.65 1 4.75 4.75 0 0 1-2.48.43h-1.74v3.61h17.38v-3.59h-2a4.89 4.89 0 0 1-2.6-.45 1.47 1.47 0 0 1-.6-1.14c-.08-.74-.12-2.67-.12-5.74v-5.16a23.53 23.53 0 0 1 .57-5.87 8.64 8.64 0 0 1 2.46-3.85c1.51-1.47 2.44-1.78 3-1.78.14 0 .58 0 1 1.1 1 2.72 2.5 3.28 3.63 3.28a3.21 3.21 0 0 0 2.41-1.06 3.53 3.53 0 0 0 1-2.44 5.38 5.38 0 0 0-1.65-3.65 5.76 5.76 0 0 0-4.44-1.77zm23.87-9.05a4.41 4.41 0 0 0 3.3-1.41 4.78 4.78 0 0 0 0-6.64 4.61 4.61 0 0 0-6.6 0 4.54 4.54 0 0 0-1.37 3.31 4.6 4.6 0 0 0 1.37 3.35 4.45 4.45 0 0 0 3.3 1.39zm4.9 37.13a1.54 1.54 0 0 1-.62-1.15c-.06-.53-.14-2-.14-5.73v-21.2h-1.76l-.34.06a43 43 0 0 1-9.53 1.83l-.9.09V33h2a7.92 7.92 0 0 1 2.45.23 1.55 1.55 0 0 1 .69.86c.12.29.4 1.43.4 5.85v8.77c0 4.14-.07 5.38-.12 5.74a1.83 1.83 0 0 1-.58 1.14c-.08.07-.57.45-2.59.45H253v3.61h17.59v-3.57h-1.69a4.69 4.69 0 0 1-2.57-.45zm33.9-1.72c-1.07 1.65-2.24 2.45-3.59 2.45a3.08 3.08 0 0 1-1.87-.65 3 3 0 0 1-1.13-1.7 24.35 24.35 0 0 1-.33-5.19V32.3h8.74v-3.61h-8.74v-9.08h-3l-.13.84a10.77 10.77 0 0 1-2.66 6.11A6.27 6.27 0 0 1 283 28.7h-1v3.6h4.2v15.43a36 36 0 0 0 .5 7.3 7.28 7.28 0 0 0 2.76 4.08 8.12 8.12 0 0 0 5.09 1.71 9.94 9.94 0 0 0 4.82-1.31 8.62 8.62 0 0 0 3.65-4l.38-.81-2.72-1.63zm34.26-21.6h1c1.77 0 3 .38 3 .76a28.33 28.33 0 0 1-1.37 3.65l-5.9 14-7-14.93a23.73 23.73 0 0 1-1.31-3s.35-.44 2.56-.51h1v-3.56H311.1v3.61h1a4.08 4.08 0 0 1 2.61.58c.3.25 1 1.05 2.15 3.56l10.69 23-2.61 6.49a5.85 5.85 0 0 1-1.2 2.04 10.4 10.4 0 0 1-2.62 1.46c-2.82 1.28-4.25 3-4.25 5s1.2 3.09 3.29 3.09a5.09 5.09 0 0 0 3.87-2 23.9 23.9 0 0 0 3.42-6.35l12.95-31.15c1.29-3.1 2.09-4.3 2.53-4.77a4 4 0 0 1 2.79-1h.95v-3.56h-12.18zm27.09 20.36a4.61 4.61 0 0 0-1.41 3.33 4.74 4.74 0 0 0 1.38 3.36 4.53 4.53 0 0 0 3.4 1.46 4.83 4.83 0 0 0 4.82-4.82 4.59 4.59 0 0 0-1.41-3.37 4.81 4.81 0 0 0-6.78.04zM365 26.7a4.54 4.54 0 0 0-3.43 1.47 4.78 4.78 0 0 0-1.35 3.35 4.66 4.66 0 0 0 1.38 3.34 4.59 4.59 0 0 0 3.4 1.44 4.68 4.68 0 0 0 3.39-1.4 4.58 4.58 0 0 0 1.43-3.38A4.81 4.81 0 0 0 365 26.7zm86 5.59h1c1.26.05 2.62.31 2.62.87a16.17 16.17 0 0 1-1 2.82l-5.42 14.1-8-21.36h-2.73l-8.3 21.37-5-13.16a18.3 18.3 0 0 1-1.31-3.77c0-.36.11-.45.26-.52a6.61 6.61 0 0 1 2.62-.31h1v-3.61h-15.27v3.61h1c1.67 0 2.15.36 2.26.48s.74 1 2 4.38l9.16 23.67h2.85l8.14-21.2 8 21.2h3l9.27-23.67.78-2.06a4.62 4.62 0 0 1 1.39-2.3 4.27 4.27 0 0 1 2.16-.5h1v-3.61H451zm51.55 20.94c-.43 2.63-1.52 2.63-1.93 2.63-.68 0-.83-.25-.92-.51s-.37-1.51-.37-4.93V38.7a15.06 15.06 0 0 0-.88-5.92 8.3 8.3 0 0 0-3.69-3.68 15 15 0 0 0-7.46-1.55c-4.25 0-7.46.86-9.54 2.54s-3.24 3.44-3.24 5.11a2.84 2.84 0 0 0 3.15 3c1.49 0 3.38-.77 4-4.43.19-1.17.92-2.72 4.94-2.72a6.86 6.86 0 0 1 3.76.91 3.54 3.54 0 0 1 1.61 1.84 16.08 16.08 0 0 1 .35 4.08v.75l-4.88 2a45.12 45.12 0 0 0-10.07 5.44c-2.62 2-3.95 4.42-3.95 7.16a6.45 6.45 0 0 0 2.5 5.27c2.82 2.25 6.48 2.66 11.32.56a36.1 36.1 0 0 0 5.41-3.06 6.59 6.59 0 0 0 1.77 2.88 6.4 6.4 0 0 0 4.46 1.54c3 0 6.61-1.22 6.92-7l.06-1h-3.19zm-21.3-1.33c0-3.29 2.87-6.12 8.53-8.42l2.51-1V52a26 26 0 0 1-4.39 2.88c-2.65 1.33-4.53 1.35-5.72 0a4.31 4.31 0 0 1-.93-2.98zm52.81 2.01c-1.07 1.65-2.25 2.45-3.59 2.45a3.06 3.06 0 0 1-1.87-.65 3 3 0 0 1-1.14-1.71 25.76 25.76 0 0 1-.32-5.2V32.3h8.74v-3.61h-8.74v-9.08h-3l-.12.84a10.88 10.88 0 0 1-2.67 6.11 6.27 6.27 0 0 1-4.5 2.14h-1v3.6h4.19v15.43a36 36 0 0 0 .56 7.27 7.32 7.32 0 0 0 2.76 4.07 8.12 8.12 0 0 0 5.09 1.71 9.94 9.94 0 0 0 4.82-1.31 8.62 8.62 0 0 0 3.65-4l.39-.81-2.73-1.63zm38.58-2.14a8.39 8.39 0 0 1-8.26 5.2 6.91 6.91 0 0 1-6.31-3.37c-1.48-2.39-2.24-6.07-2.24-10.94 0-.51 0-1.21.08-2.12h20.35v-1a13 13 0 0 0-3.55-8.15c-2.27-2.53-5.49-3.81-9.57-3.81a14 14 0 0 0-10.84 4.88 17.61 17.61 0 0 0-4.3 12.05 16.51 16.51 0 0 0 2.24 8.76 15.89 15.89 0 0 0 5.72 5.6 15.1 15.1 0 0 0 15.31-.19 11 11 0 0 0 4.93-6.19l.41-1.3h-3.71zm-4.51-14.66h-11.81c.9-4 3-6 6.5-6a5.11 5.11 0 0 1 5.33 5.56c0 .12-.01.33-.02.44zm45.64-7.79a5.76 5.76 0 0 0-4.41-1.77 9.64 9.64 0 0 0-5.9 2.34 13.57 13.57 0 0 0-2.54 2.6 19.22 19.22 0 0 0-1-4.29l-.32-.89-.91.29a48.6 48.6 0 0 1-8.48 2l-.88.1v3.47h1.73a4.52 4.52 0 0 1 2.57.46 1.51 1.51 0 0 1 .6 1.15c.09.73.13 2.67.13 5.75v8.17a51.79 51.79 0 0 1-.17 5.93 1.34 1.34 0 0 1-.65 1 4.85 4.85 0 0 1-2.48.42h-1.73v3.61h17.38v-3.58h-2a4.86 4.86 0 0 1-2.6-.45 1.51 1.51 0 0 1-.61-1.14c-.07-.76-.11-2.69-.11-5.74v-5.16a23.7 23.7 0 0 1 .57-5.87 8.58 8.58 0 0 1 2.46-3.85c1.51-1.47 2.44-1.78 2.95-1.78.16 0 .58 0 1 1.1 1 2.72 2.5 3.28 3.63 3.28a3.21 3.21 0 0 0 2.41-1.06 3.52 3.52 0 0 0 1-2.44 5.34 5.34 0 0 0-1.64-3.65z"/><path class="cls-2" d="M33.5 36.61h-12a1.92 1.92 0 0 0-1.92 1.92v5.2a1.92 1.92 0 0 0 1.92 1.92h12a1.92 1.92 0 0 0 1.92-1.92v-5.2a1.92 1.92 0 0 0-1.92-1.92zM53.08 9.75L50.4 4.44s.89-.52 1.29-.72.7-.45.15-1.48-1.15-.79-1.15-.79-.78.43-1.64.87A5 5 0 0 0 45 0h-3a1.79 1.79 0 0 0-1.4.4 1.9 1.9 0 0 1-1.48.6H18.91c-.2 0-.24-.12-.36-.2a2.91 2.91 0 0 0-3.18.34c-.32.36-1.6 1.92-2.36 2.78a3.61 3.61 0 0 1-1.93 1.18.76.76 0 0 0 .07-.82l-.3-.6.42-1.14.38-.2-.22-.52s-.24.1-.68.32-.44.42-.44.42c-.19.72-.72.76-.72.76S8.43 1.12 8.27.84s-.47-1.16-4.35.92S1 4.64 1 4.64l1.28 2.55-.4.32 1 1.92s-.24.12-1.08.68A2.94 2.94 0 0 0 0 12.75v55.8c0 4.2 1.2 6.12 5.88 6.12h42.69c2.75 0 5.39-1.44 5.39-6.24V13.27c.04-2.76-.52-2.8-.88-3.52zM22.43 5.12h14.22a2.2 2.2 0 1 1 0 4.39H22.43a2.2 2.2 0 1 1 0-4.39zM40.45 49s4.76 8.31 5.76 10.21c1.32 2.53-.48 3.61-.48 3.61s-2.4 1.2-3.6-1c-1-1.84-4.34-7.69-5.52-9.5-1.51-2.32-2.15-3.12-4.19-3.12h-10c-2.06 0-2.7.8-4.24 3.12-1.18 1.81-4.53 7.66-5.55 9.5-1.21 2.16-3.63 1-3.63 1s-1.82-1.08-.48-3.61c1-1.9 5.8-10.21 5.8-10.21a7.69 7.69 0 0 0 1.21-3.37v-9.25A7.57 7.57 0 0 0 14.29 33s-4.8-8.3-5.8-10.2c-1.34-2.49.51-3.57.51-3.57s2.42-1.2 3.63 1c1 1.83 4.37 7.67 5.55 9.47 1.54 2.32 2.18 3.11 4.24 3.11h10c2 0 2.68-.79 4.19-3.11 1.18-1.8 4.5-7.64 5.52-9.47 1.2-2.16 3.6-1 3.6-1s1.8 1.08.48 3.59c-1 1.9-5.76 10.2-5.76 10.2a7.6 7.6 0 0 0-1.2 3.36v9.28a7.73 7.73 0 0 0 1.2 3.34z"/></g></g></svg>